<svg width="64" height="64" viewBox="0 0 64 64" xmlns="http://www.w3.org/2000/svg">
    <g fill="none" fill-rule="evenodd">
        <path d="M-11343-2917H2127v4075h-13470z" fill="#EEE"/>
        <path fill="#FFF" d="M-115-1731h360V140h-360z"/>
        <path fill="#EBEBEB" d="M0 64h64V0H0z"/>
        <path d="M32 0c17.673 0 32 14.327 32 32 0 17.673-14.327 32-32 32C14.327 64 0 49.673 0 32 0 14.327 14.327 0 32 0" fill="#EBEBEB"/>
        <path d="M32 49.28c-6.775.001-12.85-4.471-15.14-11.146-.423-1.232.004-2.354 1.054-2.769 1.075-.424 2.095.145 2.557 1.4 1.76 4.763 5.059 7.625 9.876 8.378 5.72.895 11.119-2.595 13.154-8.317.42-1.183 1.285-1.78 2.257-1.556 1.24.285 1.847 1.492 1.395 2.805-1.093 3.178-2.923 5.796-5.504 7.83-2.76 2.18-6.193 3.375-9.65 3.375m-6.14-29.496c-1.327-.902-3.136-.631-4.272.5l-.395.393-.389-.387c-1.135-1.136-2.944-1.41-4.272-.509a3.324 3.324 0 0 0-.51 5.117l4.023 4.023a1.623 1.623 0 0 0 2.295 0l4.026-4.023a3.323 3.323 0 0 0-.506-5.114m21.614 0c-1.328-.902-3.136-.631-4.273.5l-.394.393-.39-.387c-1.135-1.136-2.942-1.41-4.272-.509a3.325 3.325 0 0 0-.51 5.117l4.024 4.023a1.623 1.623 0 0 0 2.295 0l4.025-4.023a3.323 3.323 0 0 0-.505-5.114" fill="#BCBCBC"/>
    </g>
</svg>
