<svg width="72" height="72" viewBox="0 0 72 72" fill="none" xmlns="http://www.w3.org/2000/svg">
    <rect width="72" height="72" rx="16" fill="#fff"/>
    <path d="M25.186 30.885c-7.43 0-13.455 6.04-13.455 13.49 0 7.449 6.024 13.488 13.455 13.488 7.43 0 13.454-6.04 13.454-13.489 0-7.45-6.023-13.49-13.454-13.49zm0 20.495c-3.86 0-6.987-3.137-6.987-7.006s3.127-7.006 6.987-7.006c3.86 0 6.987 3.134 6.987 7.006 0 3.872-3.128 7.006-6.987 7.006z" fill="#DC4032"/>
    <path d="m53.01 45.027-8.857-12.01H38.59v4.598a15.02 15.02 0 0 1 1.663 6.877c0 2.474-.608 4.816-1.663 6.882v4.354h5.9V43.272l9.193 12.456h5.228v-22.71h-5.9v12.01zM24.275 24.885c3.374 0 5.389-2.094 5.389-4.667 0-2.574-2.013-4.66-5.389-4.66-3.375 0-5.388 2.086-5.388 4.66 0 2.573 2.017 4.667 5.388 4.667zm0-8.325c1.619 0 2.846 1.639 2.846 3.658s-1.227 3.664-2.846 3.664c-1.618 0-2.841-1.64-2.841-3.664 0-2.025 1.229-3.658 2.841-3.658zM33.675 24.52h2.672v-7.565h2.994v-1.033h-9.214v1.033h3.548v7.566zM43.309 24.52h2.668v-7.565h3.552v-1.033h-9.21v1.033h2.99v7.566zM12.024 24.52h6.558v-1.029h-4.501a.513.513 0 0 1-.513-.513v-7.056H11v7.57c0 .569.458 1.028 1.024 1.028zM54.067 16.936H59v-1.014h-6.994a1.02 1.02 0 0 0-1.018 1.02v6.549c0 .568.458 1.028 1.018 1.028H59v-1.015h-4.933a.513.513 0 0 1-.513-.513v-2.533h5.37v-1.005h-5.37v-2.006a.51.51 0 0 1 .513-.51z" fill="#DC4032"/>
</svg>
